REM DIRINDEX 1\2\6,1\2\7,1\2\8,1\3\9,1\3\10,1\3\11,1\4\12,1\4\13,1\4\14,1\5\15,1\5\16,1\5\17,1\5\18
REM DIRNAME folder01,folder02,folder03,folder04,folder05,folder06,folder07,folder08,folder09,folder10,folder11,folder12,folder13,folder14,folder15,folder16,folder17,folder18
TITLE ""
FILE "2Q_t_0317-0333.mp3" MP3
  TRACK 01 AUDIO
    TITLE "12:cjc019_2690"
    INDEX 01 00:00:00
  TRACK 02 AUDIO
    TITLE "0:"
    INDEX 01 00:08:73
  TRACK 03 AUDIO
    TITLE "13:cjc019_2691"
    INDEX 01 00:10:12
  TRACK 04 AUDIO
    TITLE "0:"
    INDEX 01 00:11:15
  TRACK 05 AUDIO
    TITLE "14:cjc019_2692"
    INDEX 01 00:11:74
  TRACK 06 AUDIO
    TITLE "0:"
    INDEX 01 00:13:04
  TRACK 07 AUDIO
    TITLE "13:cjc019_2693"
    INDEX 01 00:13:57
  TRACK 08 AUDIO
    TITLE "0:"
    INDEX 01 00:14:70
  TRACK 09 AUDIO
    TITLE "14:cjc019_2694"
    INDEX 01 00:15:50
  TRACK 10 AUDIO
    TITLE "0:"
    INDEX 01 00:16:65
  TRACK 11 AUDIO
    TITLE "13:cjc019_2695"
    INDEX 01 00:17:45
  TRACK 12 AUDIO
    TITLE "0:"
    INDEX 01 00:18:68
  TRACK 13 AUDIO
    TITLE "14:cjc019_2696"
    INDEX 01 00:19:56
  TRACK 14 AUDIO
    TITLE "0:"
    INDEX 01 00:22:50
  TRACK 15 AUDIO
    TITLE "13:cjc019_2697"
    INDEX 01 00:23:30
  TRACK 16 AUDIO
    TITLE "0:"
    INDEX 01 00:24:47
  TRACK 17 AUDIO
    TITLE "14:cjc019_2698"
    INDEX 01 00:25:35
  TRACK 18 AUDIO
    TITLE "0:"
    INDEX 01 00:26:54
  TRACK 19 AUDIO
    TITLE "13:cjc019_2699"
    INDEX 01 00:27:38
  TRACK 20 AUDIO
    TITLE "0:"
    INDEX 01 00:28:49
  TRACK 21 AUDIO
    TITLE "14:cjc019_2700"
    INDEX 01 00:29:38
  TRACK 22 AUDIO
    TITLE "0:"
    INDEX 01 00:32:37
  TRACK 23 AUDIO
    TITLE "13:cjc019_2701"
    INDEX 01 00:33:15
  TRACK 24 AUDIO
    TITLE "0:"
    INDEX 01 00:34:18
  TRACK 25 AUDIO
    TITLE "14:cjc019_2702"
    INDEX 01 00:35:02
  TRACK 26 AUDIO
    TITLE "0:"
    INDEX 01 00:37:63
  TRACK 27 AUDIO
    TITLE "13:cjc019_2703"
    INDEX 01 00:38:39
  TRACK 28 AUDIO
    TITLE "0:"
    INDEX 01 00:39:64
  TRACK 29 AUDIO
    TITLE "14:cjc019_2704"
    INDEX 01 00:40:48
  TRACK 30 AUDIO
    TITLE "0:"
    INDEX 01 00:45:14
  TRACK 31 AUDIO
    TITLE "13:cjc019_2705"
    INDEX 01 00:45:65
  TRACK 32 AUDIO
    TITLE "0:"
    INDEX 01 00:47:01
  TRACK 33 AUDIO
    TITLE "14:cjc019_2706"
    INDEX 01 00:47:60
  TRACK 34 AUDIO
    TITLE "0:"
    INDEX 01 00:50:70
  TRACK 35 AUDIO
    TITLE "13:cjc019_2707"
    INDEX 01 00:51:54
  TRACK 36 AUDIO
    TITLE "0:"
    INDEX 01 00:53:00
  TRACK 37 AUDIO
    TITLE "14:cjc019_2708"
    INDEX 01 00:53:51
  TRACK 38 AUDIO
    TITLE "0:"
    INDEX 01 00:54:72
  TRACK 39 AUDIO
    TITLE "13:cjc019_2709"
    INDEX 01 00:55:50
  TRACK 40 AUDIO
    TITLE "0:"
    INDEX 01 00:56:65
  TRACK 41 AUDIO
    TITLE "14:cjc019_2710"
    INDEX 01 00:57:46
  TRACK 42 AUDIO
    TITLE "0:"
    INDEX 01 01:01:40
  TRACK 43 AUDIO
    TITLE "13:cjc019_2711"
    INDEX 01 01:02:16
  TRACK 44 AUDIO
    TITLE "0:"
    INDEX 01 01:03:27
  TRACK 45 AUDIO
    TITLE "14:cjc019_2712"
    INDEX 01 01:04:07
  TRACK 46 AUDIO
    TITLE "0:"
    INDEX 01 01:06:55
  TRACK 47 AUDIO
    TITLE "13:cjc019_2713"
    INDEX 01 01:07:33
  TRACK 48 AUDIO
    TITLE "0:"
    INDEX 01 01:08:54
  TRACK 49 AUDIO
    TITLE "14:cjc019_2714"
    INDEX 01 01:09:40
  TRACK 50 AUDIO
    TITLE "0:"
    INDEX 01 01:12:03
  TRACK 51 AUDIO
    TITLE "13:cjc019_2715"
    INDEX 01 01:12:60
  TRACK 52 AUDIO
    TITLE "0:"
    INDEX 01 01:14:19
  TRACK 53 AUDIO
    TITLE "14:cjc019_2716"
    INDEX 01 01:14:74
  TRACK 54 AUDIO
    TITLE "0:"
    INDEX 01 01:16:34
  TRACK 55 AUDIO
    TITLE "13:cjc019_2717"
    INDEX 01 01:17:14
  TRACK 56 AUDIO
    TITLE "0:"
    INDEX 01 01:18:31
  TRACK 57 AUDIO
    TITLE "14:cjc019_2718"
    INDEX 01 01:19:13
  TRACK 58 AUDIO
    TITLE "0:"
    INDEX 01 01:23:24
  TRACK 59 AUDIO
    TITLE "13:cjc019_2719"
    INDEX 01 01:24:00
  TRACK 60 AUDIO
    TITLE "0:"
    INDEX 01 01:25:21
  TRACK 61 AUDIO
    TITLE "14:cjc019_2720"
    INDEX 01 01:26:07
  TRACK 62 AUDIO
    TITLE "0:"
    INDEX 01 01:29:09
  TRACK 63 AUDIO
    TITLE "13:cjc019_2721"
    INDEX 01 01:29:62
  TRACK 64 AUDIO
    TITLE "0:"
    INDEX 01 01:31:16
  TRACK 65 AUDIO
    TITLE "14:cjc019_2722"
    INDEX 01 01:31:73
  TRACK 66 AUDIO
    TITLE "0:"
    INDEX 01 01:33:21
  TRACK 67 AUDIO
    TITLE "13:cjc019_2723"
    INDEX 01 01:33:74
  TRACK 68 AUDIO
    TITLE "0:"
    INDEX 01 01:35:14
  TRACK 69 AUDIO
    TITLE "14:cjc019_2724"
    INDEX 01 01:36:00
  TRACK 70 AUDIO
    TITLE "0:"
    INDEX 01 01:39:17
